<?xml version="1.0" standalone="no"?><!DOCTYPE svg PUBLIC "-//W3C//DTD SVG 1.1//EN" "http://www.w3.org/Graphics/SVG/1.1/DTD/svg11.dtd"><svg t="1553134749253" class="icon" style="" viewBox="0 0 1024 1024" version="1.1" xmlns="http://www.w3.org/2000/svg" p-id="12438" xmlns:xlink="http://www.w3.org/1999/xlink" width="16" height="16"><defs><style type="text/css"></style></defs><path d="M128 320h768v192A384 384 0 1 1 128 512V320z m384 128a128 128 0 0 0-128 128v128a128 128 0 1 0 256 0V576a128 128 0 0 0-128-128z m-64 256a64 64 0 1 1 128 0 64 64 0 0 1-128 0zM96 192h832a32 32 0 0 1 32 32v64H64v-64a32 32 0 0 1 32-32z" p-id="12439" fill="#ffffff"></path></svg>