<?xml version="1.0" standalone="no"?><!DOCTYPE svg PUBLIC "-//W3C//DTD SVG 1.1//EN" "http://www.w3.org/Graphics/SVG/1.1/DTD/svg11.dtd"><svg t="1553135398912" class="icon" style="" viewBox="0 0 1024 1024" version="1.1" xmlns="http://www.w3.org/2000/svg" p-id="12307" xmlns:xlink="http://www.w3.org/1999/xlink" width="16" height="16"><defs><style type="text/css"></style></defs><path d="M640 314.56a96 96 0 1 1 64 0V576h192a64 64 0 0 1 64 64v192a64 64 0 0 1-64 64H128a64 64 0 0 1-64-64v-192a64 64 0 0 1 64-64h512V314.56zM192 832a64 64 0 1 0 0-128 64 64 0 0 0 0 128z m192 0a64 64 0 1 0 0-128 64 64 0 0 0 0 128z m192 0a64 64 0 1 0 0-128 64 64 0 0 0 0 128zM495.168 361.536A223.04 223.04 0 0 1 448 224c0-51.84 17.6-99.584 47.168-137.536l50.56 39.296A159.36 159.36 0 0 0 512 224c0 37.056 12.608 71.104 33.728 98.24l-50.56 39.296z m353.664-275.072C878.4 124.416 896 172.16 896 224s-17.6 99.584-47.168 137.536l-50.56-39.296A159.36 159.36 0 0 0 832 224a159.36 159.36 0 0 0-33.728-98.24l50.56-39.296z" p-id="12308" fill="#ffffff"></path></svg>