<?xml version="1.0" standalone="no"?><!DOCTYPE svg PUBLIC "-//W3C//DTD SVG 1.1//EN" "http://www.w3.org/Graphics/SVG/1.1/DTD/svg11.dtd"><svg t="1553134534701" class="icon" style="" viewBox="0 0 1024 1024" version="1.1" xmlns="http://www.w3.org/2000/svg" p-id="24377" xmlns:xlink="http://www.w3.org/1999/xlink" width="16" height="16"><defs><style type="text/css"></style></defs><path d="M96 256h692.48a32 32 0 0 1 30.528 41.6l-118.912 380.608A128 128 0 0 1 577.856 768H96a64 64 0 0 1-64-64V320a64 64 0 0 1 64-64zM128 320a32 32 0 0 0 0 64h320a32 32 0 0 0 0-64H128z m704 64h128a32 32 0 0 1 32 32v192a32 32 0 0 1-32 32h-208L832 384z" p-id="24378" fill="#ffffff"></path></svg>