<?xml version="1.0" standalone="no"?><!DOCTYPE svg PUBLIC "-//W3C//DTD SVG 1.1//EN" "http://www.w3.org/Graphics/SVG/1.1/DTD/svg11.dtd"><svg t="1553134856257" class="icon" style="" viewBox="0 0 1025 1024" version="1.1" xmlns="http://www.w3.org/2000/svg" p-id="12307" xmlns:xlink="http://www.w3.org/1999/xlink" width="16.015625" height="16"><defs><style type="text/css"></style></defs><path d="M351.55328 581.76c11.328 4.48 16.896 17.472 12.352 29.056l-9.088 23.424a21.888 21.888 0 0 1-28.672 12.608l-45.696-18.368a16.832 16.832 0 0 0-21.952 9.664l-19.456 49.792a54.4 54.4 0 0 1-50.432 34.752l-126.912 0.128v6.016a30.848 30.848 0 0 1-30.592 31.104 30.848 30.848 0 0 1-30.656-31.104v-68.096c0-17.152 13.696-31.04 30.656-31.04 16.896 0 30.592 13.888 30.592 31.04v7.488h104.576a23.232 23.232 0 0 0 21.248-14.08l16.192-37.44a17.28 17.28 0 0 0-9.088-22.848l-39.808-16.512a22.4 22.4 0 0 1-11.84-29.824l9.92-22.528a21.888 21.888 0 0 1 28.288-11.648l170.368 68.352z m451.712-132.032l50.368 20.224c16.192 6.464 33.472 9.728 50.816 9.6l105.6-1.024a14.4 14.4 0 0 1 13.12 20.48l-118.464 260.672a14.08 14.08 0 0 1-24.32 2.432l-47.616-65.92a134.4 134.4 0 0 0-50.688-42.624l-90.112-43.712 111.36-160.128zM164.41728 142.08a20.736 20.736 0 0 1 27.136-12.672l614.208 240.448a21.312 21.312 0 0 1 9.408 32.128l-148.672 210.24a98.176 98.176 0 0 1-116.48 34.944L74.88128 458.048a21.184 21.184 0 0 1-12.032-26.752L164.41728 142.08z" p-id="12308" fill="#ffffff"></path></svg>